<?xml version="1.0" standalone="no"?>
<!DOCTYPE svg PUBLIC "-//W3C//DTD SVG 20010904//EN"
 "http://www.w3.org/TR/2001/REC-SVG-20010904/DTD/svg10.dtd">
<svg version="1.0" xmlns="http://www.w3.org/2000/svg"
 width="256.000000pt" height="256.000000pt" viewBox="0 0 256.000000 256.000000"
 preserveAspectRatio="xMidYMid meet">
<metadata>
Created by potrace 1.15, written by Peter Selinger 2001-2017
</metadata>
<g transform="translate(0.000000,256.000000) scale(0.100000,-0.100000)"
fill="#000000" stroke="none">
<path d="M790 2275 l0 -155 130 0 130 0 0 50 0 50 -70 0 -70 0 0 45 0 45 70 0
70 0 0 60 0 60 -130 0 -130 0 0 -155z"/>
<path d="M1150 2373 c0 -55 2 -59 47 -105 l47 -48 -47 0 -47 0 0 -50 0 -50
130 0 130 0 0 52 c0 48 -4 56 -42 95 l-42 43 42 0 42 0 0 60 0 60 -130 0 -130
0 0 -57z"/>
<path d="M1510 2373 c0 -55 2 -59 47 -105 l47 -48 -47 0 -47 0 0 -50 0 -50
130 0 130 0 0 52 c0 48 -4 56 -42 95 l-42 43 42 0 42 0 0 60 0 60 -130 0 -130
0 0 -57z"/>
<path d="M456 1943 c3 -21 38 -397 78 -836 41 -439 76 -800 78 -802 2 -3 154
-45 336 -94 l332 -89 332 89 c183 50 334 92 336 94 2 2 37 363 77 802 41 439
76 815 79 836 l4 37 -828 0 -828 0 4 -37z m1484 -119 c0 -25 -120 -1388 -123
-1398 -2 -5 -123 -41 -270 -81 l-267 -72 0 102 0 101 -199 59 c-110 32 -205
61 -211 65 -5 3 -15 58 -20 121 -5 63 -12 133 -15 157 l-5 42 104 0 c119 0
116 2 116 -88 0 -31 4 -62 8 -68 4 -6 45 -20 92 -32 47 -12 95 -25 108 -28
l22 -6 0 161 0 161 -229 0 -229 0 -6 68 c-4 37 -9 83 -11 103 l-5 35 236 100
236 99 -243 5 -244 5 -6 45 c-4 25 -10 71 -13 103 l-7 57 260 0 261 0 0 100 0
100 330 0 c295 0 330 -2 330 -16z"/>
</g>
</svg>
